<?xml version="1.0" encoding="utf-8"?>
<!-- Generator: Adobe Illustrator 26.3.1, SVG Export Plug-In . SVG Version: 6.00 Build 0)  -->
<svg version="1.1" id="layer_1_ft._shapes" xmlns="http://www.w3.org/2000/svg" xmlns:xlink="http://www.w3.org/1999/xlink" x="0px"
	 y="0px" viewBox="0 0 80.18 80.25" style="enable-background:new 0 0 80.18 80.25;" xml:space="preserve">
<style type="text/css">
	.st0{fill:#FDFDFD;}
	.st1{fill:#41E5DE;}
	.st2{fill:#954C84;}
	.st3{fill:#EBCDA5;}
	.st4{fill:#2C1826;}
	.st5{fill:#ED76D8;}
	.st6{fill:#954C84;stroke:#000000;stroke-width:0.25;stroke-miterlimit:10;}
	.st7{fill:#D1C239;}
</style>
<path d="M62.63,41.62c0,0-0.18-1.32-0.18-1.32c0.19-0.27,0.31-0.52,0.38-0.71c0.71,0.22,2.3-3.24,1.58-3.46
	c-0.34-0.1-2.53,1.56-2.88,1.49c-2.8-0.24-2.38,2.19-5.24,0.31c-1.44-0.79-1.06,1.41-2.15,0.15c-0.36-0.38-0.47,1.63-0.47,1.63
	l-2.43,0.4c0,0-2.14,0-3.28,1.13c-0.16-0.28-3.56,0.87-3.16,1.57c1.45,0.93-1.9,0.82-0.44,1.27c-0.9,0.29,1.5-0.7,2.64,3.59
	c0.2,0.74,1.28,3.49,1.6,2.83c0.03,0.31,3.61,0,3.58-0.32c-0.02-0.21,2.81-0.38,2.77-0.59c0.12,0.48,0.51-1.84,0.51-1.84
	c0.55,0.24,1.67-3.82,1.67-3.82L62.63,41.62z"/>
<path class="st0" d="M8.24,80.21c-2.75,0-5.49,0-8.24,0C0,53.72,0,27.24,0,0.75c17.26-0.56,34.53-0.69,51.79,0.06
	c0.75,1.78,0.28,3.3-0.99,4.65c-0.36,0.17-0.74,0.24-1.14,0.22C49.1,5.6,48.57,5.41,48.05,5.2c-0.34-0.11-0.67-0.24-1-0.38
	c-3.94-1.51-8.02-1.94-12.2-1.5c-0.3,0.09-0.62,0.16-0.93,0.22c-0.73,0.16-1.47,0.32-2.17,0.59c-0.26,0.11-0.54,0.19-0.81,0.26
	c-0.4,0.12-0.8,0.23-1.19,0.37c-0.25,0.11-0.51,0.2-0.77,0.28c-0.52,0.15-1.04,0.29-1.53,0.5c-0.25,0.13-0.5,0.25-0.75,0.36
	c-0.53,0.26-1.02,0.58-1.48,0.94c-0.99,0.82-1.95,1.67-3.24,1.98c-0.54,0.13-1.1,0.17-1.63,0.32c-0.22,0.1-0.45,0.2-0.66,0.32
	c-0.19,0.15-0.38,0.29-0.56,0.44c0.01,0.01-0.26,0.24-0.26,0.24c-0.16,0.18-0.33,0.34-0.5,0.5c0.01,0.01-0.26,0.25-0.25,0.25
	c-0.16,0.18-0.33,0.35-0.51,0.51c0.01,0.01-0.26,0.25-0.26,0.26c-0.16,0.19-0.34,0.36-0.52,0.53c0,0.01-0.27,0.26-0.26,0.27
	c-0.17,0.18-0.36,0.35-0.54,0.52c-0.17,0.18-0.36,0.35-0.53,0.53c-0.23,0.29-0.43,0.61-0.59,0.95c-0.1,0.24-0.23,0.46-0.36,0.67
	c-0.14,0.21-0.3,0.41-0.47,0.6c-0.08,0.1-0.16,0.19-0.24,0.29c-0.22,0.31-0.41,0.63-0.58,0.97c-0.1,0.24-0.22,0.46-0.35,0.68
	c-0.1,0.23-0.22,0.46-0.34,0.69c-0.1,0.23-0.23,0.46-0.35,0.68c-0.17,0.34-0.34,0.68-0.49,1.03c-0.09,0.24-0.2,0.48-0.3,0.72
	c-0.19,0.51-0.3,1.04-0.43,1.56c-0.06,0.29-0.15,0.57-0.23,0.86c-0.32,1.24-0.16,2.53-0.42,3.78c-0.05,0.36-0.14,0.7-0.24,1.04
	c-0.57,3.74,0.66,7.63-0.88,11.29c-0.27,0.47-0.6,0.91-0.93,1.34c-0.52,0.7-0.82,1.5-1.05,2.33c-0.88,2.77,0.03,5.14,1.67,7.34
	c0.41,0.73,0.74,1.49,0.93,2.31c0.93,8.43-1.05,16.78-0.61,25.19C9.3,78.75,8.82,79.53,8.24,80.21z"/>
<path d="M16.27,40.89c-0.32-0.27-0.55-0.59-0.55-0.59c-0.19-0.27-0.31-0.52-0.38-0.71c-0.12-0.56-1.17-2.23-0.81-2.69
	c0.3-0.2,1.76,0.79,2.11,0.72c2.8-0.24,2.38,2.19,5.24,0.31c1.44-0.79,1.06,1.41,2.15,0.15c0.36-0.38,0,1.84,0.47,1.63
	c0.57-0.09,2.43,0.4,2.43,0.4s2.14,0,3.28,1.13c0.16-0.28,3.56,0.87,3.16,1.57c-1.45,0.93,1.9,0.82,0.44,1.27
	c0.9,0.29-1.5-0.7-2.64,3.59c-0.2,0.74-1.28,3.49-1.6,2.83c-0.8-0.82-1.98,0.67-3.58-0.32c-1.65-1.01-2.14-1.36-2-1.36
	c-0.12,0.48-1.28-1.07-1.28-1.07c-0.55,0.24-2.22-3.58-1.67-3.82C19.93,42.93,16.27,40.89,16.27,40.89z"/>
<path d="M38.35,66.92c7.86-0.28,14.64-5.24,17.43-10.86c0,0,2.13-3.2,1.71-10.97c-0.07-1.29-1.79,4.75-1.79,4.75l-8.64,2.02
	l-5.77-5.07l3.84,2.32l14.56-7.24c0,0,1.9-0.52,2.24-0.59c0.56-0.07,1.1,0.34,1.61,0.61c0.71,0.56,0.35-3.41,0.15-2.59
	c-1.36,4.22-3.62,8.57-3.47,12.97c0.03,0.79,0.03,1.58,0,2.37c-0.02,1.33,0.01,2.67-0.25,3.99c-0.69,2.36-0.65,4.85-1.19,7.24
	c-0.02,0.09,0.06,0.25,0.14,0.32c0.05,0.04,0.2-0.05,0.3-0.11c0.42-0.61,0.58-1.3,0.81-1.96c0.08-0.3,0.18-0.6,0.29-0.89
	c0.31-0.91,0.33-1.88,0.51-2.82c0.18-0.83,0.39-1.65,0.56-2.48c0.45-1.57,0.68-3.17,0.57-4.82c-0.03-0.39-0.03-0.77-0.02-1.16
	c0.14-3.98,0.44-7.96,0.46-11.94c0.5-0.94,1.21-1.5,2.34-1.34c1.04,1.6,1.54,3.48,3.12,4.84c0.8,0.69,1.18,4.83-0.26,3.31
	c-1.27-1.33-3.47,0.76-2.2,2.09c0.85,0.89,10.11-14.16,9.9-12.94c1.92-0.07,0.76,3.73,0.76,3.73s-5.07,27.83-5.21,36.28
	c-0.03,1.5-0.05,3-1.14,4.22c-0.25,0-0.5,0-0.75,0c-2.02-1.14-1.61-3.12-1.72-4.93c-0.24-3.88,0.6-7.85-1.04-12.32
	c-1.25,2.44-2.66,4.01-4.71,4.83c-0.49,0.88-1.09,1.68-1.63,2.53c-0.2,0.29-0.43,0.55-0.69,0.79c-0.43,0.35-0.91,0.54-1.46,0.51
	c-3.06-1.66-0.87-4.19-1.09-6.01c0.11-0.81-0.76-0.33-0.26-0.38c0.2-0.02,0.27,0.06,0.25,0.24c-0.04,0.5,0.02,1.1-0.29,1.45
	c-2.64,3.01-2.59,6.86-3.28,10.47c-0.14,0.31-0.41,1.09-0.61,0.8c-0.81-1.2-3.77,0.81-2.95,2c0.28,0.41-1,0-1.5,0
	c-0.27-1.75-1.13-3.42-0.73-5.26c1.03-0.55,2.54-0.18,3.12-1.62c1.05-1.04,1.05-2.36,0.98-3.7c0.03,1.34,0.02,2.67-1.01,3.72
	c-1.83-0.83-1.72,1.38-2.55,2.46c-1.87-0.58-2.25-3.05-2.7-4.37c-3.53,1.91-7.19,2.55-11.28,0.51c-0.35,3.49-2.44,5.89-4.57,8.27
	c-0.25,0-0.5,0-0.75,0c-2.76,0.33-2.4-0.04-3,0c-1.25,0-2.5,0-3.75,0c0.43-2.89,3.89-3.78,4.38-6.63c1.82,0.41,1.82,0.41,2.05-1.27
	c0.83,0.44,1.82,0.33,2.46-0.26c0.73-0.67,0.64-1.65,0.63-1.77c-0.4-0.16-0.98-0.3-1.58-0.13c-0.5,0.14-0.7,0.4-0.97,0.53
	c-0.53,0.25-1.49,0.06-3.42-1.76c-0.54,0.23-0.83,0.48-0.85,0.76c-0.06,0.64,1.27,1.42,3.99,2.32c-1.14-0.06-2.06,0.21-2.27,1.53
	c-2.15,3.04-2.29,3.07-3.98-0.04c-0.62-1.13-1.36-2.06-2.36-2.84c-1.12-0.88-1.41-3.52-1.41-3.52s0.47-3.05,0.86-4.55
	c-0.02-1.17-0.35-2.3-0.57-3.45c-0.19-0.96-0.18-1.39-0.19-1.57c-0.11-1.24-2.13-21.95-2.09-22.66
	C20.29,42.68,30.14,67.21,38.35,66.92z"/>
<path class="st0" d="M70.91,56.52c0.05-0.21,0.1-2.73,0.13-3.11c0.02-0.3,2.05-11.14,1.64-12.27c-0.23-0.62-0.24-1.5-0.54-2.1
	c-0.34-0.66-0.18-1.81-0.42-2.52c-0.13-0.4-2.95,1.93-2.99,1.51c-0.19-3.47,0.09-6.94-0.23-10.4c-0.13-1.38,0.14-2.68,1.45-3.09
	c3.29-1.05,6.65-1.82,9.79,0.53c0.11,17.66,0.02,35.32,0.04,52.98c0,0.74,0.12,1.5-0.36,2.16c-3.25,0-6.49,0-9.74,0
	c0-2.47-0.09-4.95,0.02-7.41c0.16-3.43-0.42-6.83-0.72-10.23c-0.24-2.68-0.16-4.21-0.06-5.77c0.57-8.87-1.45-21.85,2.97-21.85
	C79.13,35.57,78.14,57.14,70.91,56.52z"/>
<path class="st1" d="M79.43,80.21c0-18.49,0-36.98,0-55.47c0-0.88-11.93-0.87-11.93,0.01c-0.86-0.19-1.59-0.66-2.3-1.16
	c-3.44-2.45-3.57-4.5-0.44-7.44c0.45-0.42,0.94-0.8,1.39-1.22c0.29-0.25,0.62-0.44,0.97-0.59c2.71-0.81,5.37-1.81,8.32-1.16
	c1.04,0.23,2.29,0.3,2.72-1.19c0.37-2.36,0.08-4.73,0.17-7.08c0.09-2.27-1.07-3.09-3.19-3.06c-3.23,0.05-6.46-0.06-9.68,0.07
	c-1.65,0.07-1.46,1.33-1.52,2.4c-0.08,1.34,0.05,2.69-0.24,4.01c-0.09,0.35-0.22,0.68-0.38,1c0.78,1.29-1.64,1.99-3.14,1.9
	c-1.97-0.11-4.15-1.11-2.81-2.36c-0.66-0.91-1.06-2.43-0.45-3.69c-0.09,0.62,0.28,1.72-0.18,2.76c0.7,0.68,2.53,6.24,2.07,6.24
	c0,0-4.98-3.97-5.54-4.15c-0.34-0.19-0.62-0.44-0.85-0.75c-1.63-2.21-1.44-4.6-0.71-7.04c-0.11-0.53,0.36-1.37-0.59-1.48
	c-0.98-0.1-2.98-0.02-2.98-0.02s-32.09,0-48.13,0C0,0.5,0,0.03,0,0.03C1.13,0,2.25,0,3.37,0c25.6,0,51.2,0,76.8,0
	c0,26.36,0,52.72-0.02,79.08C80.16,79.54,80.62,80.46,79.43,80.21z"/>
<path class="st2" d="M62.19,80.21c-0.5,0-1,0-1.5,0"/>
<path class="st2" d="M60.7,68.21l1.16-1.94c0,0,0.48-1.65,0.74-2.79c0.26-1.14,1.2-8.53,1.29-8.51c0.1,0.02,3.21-1.56,3.21-1.56
	s0.92,18.27,1.08,23.37c0.04,1.2-0.11,2.42,0.76,3.43c-1.25,0-2.5-0.01-3.75,0c-12.81,0.12-10.93,0.04-10.93,0.04l-1.81,0.1
	l-2.31-0.04l-1.56-3.8c0,0-1.26-3.67-1.56-5.29c-0.06-0.34,0.57-3.01,0.57-3.01l2.61-2.82c0,0,5.67-4.88,6.75-6.17
	c0,2.88,0.03,8.63-0.01,11.05c0,0.14-0.02,0.54,0.24,0.8c0.32,0.32,0.91,0.23,1.27,0.14C59.12,70.59,60.7,68.21,60.7,68.21z"/>
<path class="st2" d="M59.95,80.21c0,0-1,0-1.5,0"/>
<path d="M20.53,70.71c0.33,0.69-3.19-0.18-3.13,0.18c0,0.02,0.03,0.21,0.04,0.21c0.01,0-0.01-0.16-0.03,0.16
	c-0.19,2.34,1.7,4.99,0.09,6.87c-1.37,1.6-4.09,0.84-6.23,1.08c-0.66,0.07-1.09,0.56-1.53,1c-0.5,0-1,0-1.5,0c0-3.24,0-6.48,0-9.72
	c0-2.12-0.01-4.37,0.16-6.29c0.9-2.13,0.37-4.1,0.55-6.12c0.19-2.1,0.04-4.23,0.04-6.35c0.13-0.1,0.27-0.2,0.4-0.31
	c1.67-0.56,3.11,2.38,4.88,0.32c2.42,0.53,1.3,2.57,1.72,3.97c0.01,0.72,0.17,1.43,0.27,2.14c1.33,0.19,2.18,2.86,0.86,2.67
	c-0.03,0,1.27,1.04,1.24,1.04c0.07,0.99,2.95,5.04,2.69,6.4C20.67,69.86,20.12,69.83,20.53,70.71z"/>
<path class="st3" d="M47.75,75.5c0,0,0.03,0.96,0.3,1.25c0.27,1.32,1.02,3.46,1.02,3.46s-13.97-0.1-20.21-0.1
	c0.04-0.95,1.63-3,1.63-3s2.6-3.67,2.49-6.82c1.51,1.43,3.24,1.28,4.77,1.69c2.11,0.18,4-0.18,5.38-0.66
	c0.81-0.4,3.49-1.49,3.49-1.49l0.3,2.57l0.52,1.97L47.75,75.5z"/>
<path class="st2" d="M15.53,61.47c0.39,1.81,0.54,2.01,0.88,2.94c0.44,1.24,1.3,2.69,1.3,2.69l1.02,1.66l2.53,1.66
	c0,0-0.03-10.74-0.16-10.56c-0.15,0.21,11.2,8.54,11.35,8.33l0.09,1.94c0.58,0.06-1.05,7.71-6.47,10.04c-1.39,0-2.72-0.02-4.34,0.04
	c-0.52,0.02-1.02,0.02-1.5,0c-0.62-1,0.06,0,0.06,0s0,0-0.81,0c-3.25,0-6.49,0-9.74,0c-0.14-0.79-1.41-1.32-0.98-1.96
	c0.11-0.16,0.15-0.9,0.13-0.98c0,0,0-0.69,0-0.69c0-0.56-0.15-1.44-0.13-2.54c0.01-0.45,0.13-0.53,0-1.94
	c-0.21-2.21,0.05-3.86,0.09-4.09C8.95,67.5,9,64.47,9,64.47s0.35-0.52,0.4-1.39c0.06-1.22-0.12-8.64,0.47-9.86
	c0.48-1,1.92,1.6,4.47,1.6c0.09-0.09,0.1,0.47,0.1,0.47c-0.02,0,0.22,1.37,0.39,2.43C15.09,59.36,15.09,59.41,15.53,61.47z"/>
<path class="st1" d="M30.72,3.24c0.25,0,0.5,0,0.75,0C32.08,2.56,32.61,3,33.72,3c4.92-1.13,9.53,0.66,14.24,1.5
	c0.4,0.46,1.09,0.32,1.5,0.75c1.02-0.29,2.91,3.17,1.89,3.46c0-0.15-5.79-2.03-5.79-1.88c0,6.5-11.97-1.18-17.72,1.29
	c-0.29,0.15-0.59,0.28-0.89,0.4c-0.4,0.18-0.83,0.33-1.23,0.5c-0.23,0.13-0.47,0.26-0.69,0.39c-0.2,0.16-0.4,0.31-0.6,0.48
	c-0.09,0.09-0.19,0.17-0.28,0.26c-0.18,0.18-0.37,0.34-0.56,0.5c-0.19,0.16-0.4,0.29-0.62,0.41c-0.2,0.13-0.42,0.25-0.63,0.37
	c-0.19,0.14-0.39,0.28-0.58,0.43c-0.18,0.17-0.36,0.34-0.53,0.52c0,0.01-0.26,0.27-0.26,0.28c-0.17,0.2-0.36,0.38-0.54,0.56
	c-0.28,0.3-0.56,0.59-0.84,0.89c-0.19,0.23-0.39,0.44-0.6,0.65c-0.1,0.12-0.21,0.22-0.31,0.34c-0.55,0.57-1.03,1.2-1.45,1.86
	c-0.17,0.28-0.36,0.54-0.55,0.8c-0.19,0.27-0.39,0.52-0.59,0.78c-0.09,0.14-0.19,0.27-0.29,0.4c-1.53,2.52-2.01,5.36-2.49,8.21
	c-0.11,0.38-0.24,0.74-0.38,1.11c-0.96,1.86-0.37,3.96-0.94,5.86c-0.44,1.46-0.12,5.27-2.55,4.59c0.05-4.21-0.42-7.95,0.31-11.71
	c0.97-1.38-0.61-3.11,0.32-4.5c0-1.61-0.15-2.31,0.51-2.92c0.46-0.4,1.42-2.21,1.42-2.21s0.32-1.02,0.75-1.43
	c-0.31-1.24,0.43-2.75,0.75-1.51c0.26-0.24,0.51-0.98,0.75-1.23c0.61-0.68,0.76-0.93,1.5-1.52c0.26-0.24,0.51-0.45,0.75-0.71
	c0.26-0.24,0.51-0.51,0.75-0.77c0.26-0.24,0.75-0.61,0.75-0.61s0.51-0.34,0.75-0.59c0.26-0.24,0.51-0.49,0.75-0.75
	c0.41-0.44,1.11-0.55,1.5-1.02c1.2-1.2,2.24-1.21,3.15-1.21c0.23-0.53,0.89-0.66,1.34-0.75c0.4-0.45,0.63-0.02,1.03-0.48
	c0.61-0.66,1.53-0.17,2.13-0.87C29.04,3.47,30.34,3.71,30.72,3.24z"/>
<path d="M9.74,26.99c0,3.71,0,7.42,0,11.13c0.71-0.01,1.19,0.81,1.12-1.01c0,0,0.01-11.3,1.87-10.12s-0.06,4.59,0.28,6.87
	c-0.16,1.61,0,3.08,1.68,3.92c0.67,0.54,0.65,1.28,0.61,2.04c0.03,2.14-0.09,4.28-0.06,6.42c0.01,0.59,0,1.19-0.02,1.78
	c-0.1,1.18-1.26,6.82-1.26,6.82s-4.43-2.38-4.64-2.73c-0.83,0.34-3.16-6.52-2.8-6.88c0,0-0.32-1-0.06-2.67
	c0.66-2.07,1.78-3.19,1.78-3.19s0.65-0.03,0.54-0.17c0.39-0.83,0.3-1.04,0.26-2.09C8.91,34.17,8.98,31.23,9,28.29
	C9.01,27.75,8.74,26.99,9.74,26.99z"/>
<path d="M50.57,6.25l-1.04-0.44c0,0,1.83-0.03,1.46-1.87c-0.13-1.73,0.95-3.21,1.06-3.19c0.15,0.04-1.05,2.73-0.31,5.6
	c0.42,1.62,1.34,2.83,2.15,3.66c-0.13,0.07-0.9,0.51-1.76,0.14c-0.56-0.24-1.05-0.69-1.34-1.16c0.01-0.84,1.38-0.23,0.8-0.72
	C51.53,8.13,50.57,6.25,50.57,6.25z"/>
<path class="st4" d="M10.49,22.49c0,1.2-0.37,2.39-0.37,3.59c0,0.51-0.24,11.92-0.92,11.87c-0.36,0,0.17-14.55,0.53-14.55
	C10.25,23.39,9.82,22.44,10.49,22.49z"/>
<path class="st4" d="M13.49,15.74"/>
<path class="st4" d="M20.98,8.25"/>
<path d="M51.36,7.15c-0.57-1.22-8.31-4.39-13.35-4.39c-1.26,0.03-3.72,0.09-6.79,0.61c0,0-5.91,2.04-7.13,2.62
	c-0.44,0.21-3.86,2.24-3.86,2.24l-3.75,2.73c0,0-1.59,1.69-2.08,2.28c-0.46,0.56-1.29,2.25-1.49,2.54c-0.8,1.12-1.04,2.33-1.04,2.33
	l-0.47,1.14c0,0-0.9,1.12-0.9,3.19c0-0.97-0.82,14.94-0.85,15.55c0,0-0.51-10.94-0.53-10.9c0.03-1.87,1.39-8.15,1.09-7.43
	s1.13-2.66,2.15-4.4c-0.32-0.23,3.98-5.31,4.3-5.08c0.11-0.43,2.11-1.67,2.11-1.67l2.19-1.51c-0.02-0.03,1.37-0.96,1.39-0.93
	c0.33-0.26,1.13-0.63,1.13-0.63c-0.1,0.05,2.08-0.73,2.7-1.02c0.83-0.39,1.49-0.63,1.68-0.7c0.84-0.32,1.86-0.64,3.03-0.92
	c1.23-0.29,10.48-0.4,10.54-0.18C48.11,3.28,53.15,7.07,51.36,7.15z"/>
<path class="st5" d="M57.83,39.42c0-0.02-3.74,1.29-5.69-1.56c0.4-1.23-1.46-3.61-1.69-4.24c-0.25-0.17-0.3-0.16-0.82-0.45
	c-1.11-0.61-1.94-1.22-2.48-1.64c0.42-1.81-1.02-0.73-1.02-0.73l-0.26-0.23c-0.21,0.07-0.37-0.17-0.95-0.45
	c-0.2-0.1-1.07,1.73-0.87,1.82c0.21,0.14-1.27,2.36-1.48,2.23c-0.28-0.18-0.27,0.6-0.45,0.88c-0.74,1.08-1.48,2.16-2.18,3.26
	c-0.16,0.27-0.34,0.53-0.54,0.78c-0.19,0.25-0.39,0.48-0.61,0.71c-0.1,0.11-0.22,0.22-0.32,0.34c-0.21,0.23-0.44,0.45-0.67,0.66
	c-0.12,0.11-0.24,0.21-0.36,0.31c-0.26,0.21-0.54,0.36-0.85,0.47c-0.17,0.02-1.28,0.98-1.44,1c-0.34-0.06-0.75-0.09-0.99-0.33
	c-0.43-1.43,0.34-3.32,0.34-3.32c0.38-1.33-0.67-4.02,0.62-4.5c0.21-0.08-0.75-2.7-0.96-2.63c-1.08,0.4-0.86,1.69-1.61,0.94
	c-0.13,0.3,0.3-0.02,0.24,0.69c-0.02,0.28-0.12,0.5-0.19,0.66c-0.12,0.13-0.57,0.25-0.69,0.38c-0.75,0-0.43,0-1.18,0
	c-0.14-0.14-1.04,1.88-1.17,1.85c-0.91-0.22-1.45,1.51-3.34,3.4c0.05,1.24-11.12-2.14-11.12-2.14s0.42,1.45,0.64,2.14
	c0,8.28-1.7,1.38-1.95,1.2c-0.11-0.57-1.92-1.64-1.92-1.64s0.13,0.96,0.13-4.81c-0.57-2.58,0.96-4.95,0.75-7.5
	c0.71-3.09,1.79-6.07,3-9c0.26-0.24,0.51-0.49,0.75-0.75c0.69-1.04,1.59-1.93,2.25-3c0.26-0.24,0.49-0.51,0.75-0.75
	c-0.02-0.52,0.23-0.77,0.75-0.75c0.24-0.26,0.51-0.49,0.75-0.75c0.26-0.24,0.51-0.49,0.75-0.75c0.41-0.43,1.1-0.29,1.5-0.75
	c0.26-0.24,0.51-0.49,0.75-0.75C24.24,9.5,24.49,9.25,24.73,9c0.41-0.43,1.1-0.29,1.5-0.75c7.79-3.76,15.7-3.33,23.67-0.66
	c0.43,0.43,0.84,0.44,1.41,1.02c0.04-0.06,1.66,1.07,1.89,1.31c0.24,0.24,1.31,0.64,1.92,1.13c1.11,0.92,2.31,1.73,3.43,2.64
	c0.37,0.33,0.68,0.7,0.96,1.1c0.51,0.83,1.09,1.6,1.76,2.32c0.35,0.39,0.64,0.81,0.85,1.28c-0.08,2.48,5.34,8.79,4.02,11.57
	c2.44,0.8-1.25,11.14-3.69,10.34c-0.1-0.03,1.52-2.66,1.52-2.66L57.83,39.42z"/>
<path class="st3" d="M50.22,50.2c0.19,0,0.38,0.01,0.58,0c0.34-0.01,0.96-0.05,0.96-0.05l1.49-0.35c0,0,1.4-0.8,1.37-0.85
	c0.07-0.09,0.75-0.9,1.09-1.54c0.12-0.27,0.22-0.56,0.22-0.56c0.18-0.51,0.36-2.25,0.13-2.81l-0.25-0.6l0.08-1.1
	c0.1,0.25,2.06-0.23,2.06-0.23s0.49,0.53,0.49,0.95c-0.02,2.86,0.23,4.78-0.09,7.61c-0.24,2.15-1.33,4.19-1.78,6.33
	c-0.38,1.79-2.68,3.7-2.68,3.7s-2.02,2.28-3.15,2.74c-3.01,1.22-5.34,3.66-8.66,4.4c-1.48,0.33-2.87,0.19-4.29,0.35
	c-1.47,0-2.88,0.07-4.09-0.76c-2.6-0.99-4.67-2.35-6.63-4.01c-0.61-0.52-1.43-0.9-2.03-1.36c-3.05-2.38-4.83-5.54-4.83-9.53
	c0-2.74,0-5.48,0-8.22c0-0.6-0.14-1.21,0.46-1.69c0.48-0.38,0.89-0.96,1.54-0.47c0,0,0.65-0.15,0.45,0.34
	c0.49,2.04-0.03,3.74,0.54,5.73c0.14,0.06,0.28,0.26,0.42,0.32c-0.03,0.05,0.63,0.52,0.63,0.52s1.19,0.81,1.19,0.8
	c0.6,0.49,1.54,0.45,2.26,0.35c0.25-0.08,0.55-0.26,0.79-0.35c0.34-0.18,1.16-0.74,1.44-1c0.36-0.47,0.5-0.69,0.5-0.69l0.37-0.46
	l0.21-0.31c0,0,0.23-1.53,0.38-2.23c0.17-0.76-0.34-1.79,1.16-1.73c0.43,0.02,0.19-0.47-0.06-0.74c-0.74-0.83-1.79-1.2-2.76-1.37
	c-0.77-0.14-1.26-0.62-1.91-0.8c-0.5-0.14-1.88-0.41-1.88-0.41s8.1-7.63,8.46-7.82c1.29,0.66-0.06,7.22-0.06,7.22l0.06,0.5
	l-0.4,0.97l0.57,1.35c0,0,1.55-0.35,1.38-0.69c0.26-0.08,0.49-0.22,0.7-0.4c0.26-0.24,0.51-0.49,0.75-0.75
	c0.26-0.24,0.51-0.49,0.75-0.75c0.26-0.24,0.51-0.49,0.75-0.75c1.29-1.31,2.19-2.87,3-4.5c0.26,0.22,2.53-2.5,2.27-2.72
	c-0.54-1.28,2.51-2.67,3.05-1.38c0.96,0.13,1.31,1.64,1.88,2.38c0.19,0.3,0.68,0.28,0.73,0.63c-0.19,2.03-2.12,2.61-3.19,3.85
	c1.91-0.55,3.6-1.45,5.83-1.12l0.49,0.61c0,0.24,0.19,0.72,0.19,0.72l0.48,2.26l-1.31,0.21c0,0-5.01,1.6-5.01,1.6
	c-0.66,0.31-1.19,0.55-1.5,0.69c-0.69,0.1-0.49,1.44,0.2,1.33c0.63-0.09,0.37,1.62,0.37,1.62s0.19,0.3,0.12,0.37
	c-0.24,0.25,1.47,3.44,1.54,3.11l0.37,0.51l0.55,0.44c0.06,0.03,0.17,0.08,0.17,0.08S49.57,50.04,50.22,50.2z"/>
<path class="st1" d="M47.55,47.17c0,0-0.34-0.44-0.34-0.69c-0.45-2.48,1.33-3.41,3.09-4.17c1.62-0.7,3.21-0.85,4.75,0.69
	c0.12,0.16,0.19,0.4,0.4,0.48c0.56,1.25,0.56,2.5,0,3.75c-0.57,0.93-1.32,1.68-2.25,2.25c-1.25,0.56-2.5,0.56-3.75,0
	c-0.24-0.26-0.49-0.51-0.75-0.75c-0.24-0.26-0.49-0.51-0.75-0.75C47.71,47.72,47.55,47.17,47.55,47.17z"/>
<path class="st1" d="M23.45,47.49c0,0-0.25-2.23-0.21-3.21c0.06-1.79,0.6-2.1,2.41-2.35c1.43-0.2,2.39,0.91,3.76,0.87
	c0.9-0.03,0.74,1.28,1.24,1.92c0.42,0.53,0.03,1.64,0.03,2.5c-0.28,0.22-0.44,0.51-0.69,0.76c-0.39,0.61-0.89,1.11-1.5,1.5
	c-1.46,0.83-2.63,0.14-3.75-0.75C24.11,48.34,23.45,47.49,23.45,47.49z"/>
<path class="st5" d="M58.09,54.06l1.52-6.35l1.33-4.3l1.52-3.12c0.01,0.02,3.56-4.87,5.23-3.2c-0.86-1.41-2.39-0.25-2.08-0.62
	l-1.72,5.85l-0.24,1.6c0,0,0.07,1.33,0.01,1.79c-0.18,1.42,0.04,4.46-0.16,7.51c-0.05,0.76-0.61,12.19-4.26,15.84
	c-0.14,0.19-1.66,1.59-1.66,1.59S57.07,61.93,58.09,54.06z"/>
<path class="st5" d="M14.52,36.89c3.55,0,5.79,17.84,5.79,21.31c0.15-0.01,0.33,4.76,0.17,4.76c0.04-0.34,0.07,1.73,0.01,2.13
	c-0.02,0.13,0.1,4.33,0.1,4.33c0,0-1.28-1.26-1.28-1.26c-1.21-1.85-1.98-3.51-2.46-4.72c-1.35-3.37-1.73-6.31-1.97-8.19
	c-0.13-1.05-0.19-1.86-0.22-2.38C14.34,47.66,14.45,40.46,14.52,36.89z"/>
<path class="st2" d="M28.48,71.96c0.04,0.95-0.28,1.99,0.78,2.68c0.5,0.33,1.06,0.88,0.61,1.5c-0.5,0.69-1.38,0.24-2.09,0.3
	c-0.99,0.08-0.7-0.71-0.81-1.27c-0.12-0.61,0.52-1.58-0.73-1.71c0-0.47-0.01-0.94,0-1.41c0.03-0.93,0.31-0.88,0.95-0.32
	C27.46,71.98,28.03,71.89,28.48,71.96z"/>
<path class="st5" d="M29.23,35.23c0,0.24,0.1,0.58-0.02,0.69c-1.08,1.03-2.05,2.26-3.73,2.31c-0.04-2.25,1.23-3.18,3.31-3.32
	C28.93,35.02,29.08,35.12,29.23,35.23z"/>
<path class="st2" d="M27.33,67.49c0.53,0.31,0.24,0.86,0.43,1.03c0.6,0.55,0.99,1.23,0.65,1.9c-0.13,0.25-1.05,0.07-1.59-0.45
	c-0.86-0.83-0.72-1.43,0.11-2.08C27.02,67.82,27.1,67.72,27.33,67.49z"/>
<path class="st2" d="M28.48,70.46c0.66,0.06,1.65-0.32,1.48,0.93c-0.13,0.92-0.95,0.46-1.48,0.57
	C28.48,71.46,28.48,70.96,28.48,70.46z"/>
<path class="st2" d="M31.1,74.42c-0.53-1.21-0.53-2.21,0-3.43C31.63,72.21,31.63,73.21,31.1,74.42z"/>
<path class="st2" d="M24.72,67.08c0.11-0.35-0.28-1.06,0.5-0.95c0.42,0.06,0.26,0.62,0.24,0.96c-0.03,0.37,0.29,1.07-0.48,0.96
	C24.56,67.99,24.78,67.43,24.72,67.08z"/>
<path class="st2" d="M63.73,56.73c0.09-0.14,0.22-0.33,0.34-0.52c0.12,0.31,0.31,0.61,0.35,0.93c0.02,0.17-0.22,0.38-0.35,0.57
	C63.77,57.48,63.62,57.18,63.73,56.73z"/>
<path class="st5" d="M29.97,34.48c0.02,0.52-0.23,0.77-0.75,0.75C29.05,34.55,29.3,34.3,29.97,34.48z"/>
<path d="M68.74,51.47c0.09-0.52-3.84-12.56-3.84-12.56c-0.14-0.05,1.68-4.41,1.68-4.41s-0.71-2.19-0.36-3.38
	c0.18-0.38,0.49-1.42,0.9-1.41c1.55,1.87,0.53,4.89,0.67,6.92c0.74-4.18-0.79-8.1-1.33-12.14c0.07-0.17,0.15-0.34,0.23-0.51
	c3.81,0,7.62-0.01,11.43,0.01c0.54,0,1.31-0.27,1.31,0.74c-1.96-0.56-3.82-0.48-5.75-0.44c-0.03,0-4.45,0.05-4.45,0.05l0.19,3.39
	c0,0,0,3.3,0.26,3.88c0.17,1.36-0.4,3.42,0.11,5.92c-0.1,1.65,0.12,2.78,1.36,4.07C71.69,43.57,71.68,46.86,68.74,51.47z"/>
<path class="st0" d="M64.44,0.75c4.93,0,9.86,0,14.99,0c0,4.37,0,8.55,0,12.74c-0.79,0.59-1.63,0.34-2.46,0.15
	c-3.59-0.8-7.01-0.32-10.28,1.34c-0.97,0.79-1.78,0.25-2.6-0.3c-0.75-0.64-1.41-1.36-1.75-2.32c-0.01-1.18,0.82-2.24,0.61-3.38
	C64.55,6.45,62.77,3.28,64.44,0.75z"/>
<path d="M62.94,9c-0.3,1.56,1.55,4.77,2.1,5.85c-1.36,0.59-5.46-5.62-6.1-2.27s-0.89,0-0.86-0.55c-0.64-0.8-1.64-2.41-1.64-2.41
	L56.2,8.25c0-2.23-0.01-7.47-0.01-7.47l0.57-0.03l0.62-0.01c0,0-0.37,5.61-0.37,7.33c0.13-0.62,1.03-1.8,1.27-2.03
	s1.3-1.26,1.3-1.26c0.11-0.19-2.01,2.96-2.22,3.55c-0.33,0.42,0.45,2.51,1.12,2.37c0.22,0.12,0.77,0.13,0.87,0.15
	c0,0.14,2.29-0.23,2.29-0.23S62.86,9.82,62.94,9z"/>
<path d="M64.44,14.24c0.8,0.11,1.29,1.12,2.25,0.75c0,0-0.7,0.88-0.7,0.88s-1.06,1.19-1.59,1.81c-0.53,0.62-1.78,1.06-1.38,1.95
	c0.45,1.01,1.34,3.07,1.34,3.07s0.85,1.28,2.34,1.28c0.34,0,0.34,12.46,0,12.46c-0.24,0.1-0.87-7.11-0.64-7.21l-0.33-1.5l-0.67-1.85
	c0,0-0.54-1.71-0.54-1.71s-2.03-4.5-3.06-6.19c0.05-0.16,0.09-0.31,0.14-0.47C62.58,16.46,63.41,15.27,64.44,14.24z"/>
<path d="M64.92,18.31c2.21,0.43,3.35,0.26,3.35,0.26l0.7-0.92l1.18-1.81c0,0-0.33,1.57-0.49,1.72c-1.34,1.24,0.66,1.02,1.45,1.13
	c1.58,0.21,3.21,0.06,4.82,0.06c1.78,0.04,2.27,0.19,3.39,0.51C74.62,19.3,69.91,20.06,64.92,18.31z"/>
<path d="M65.29,15.71c0.02-0.32,4.73-2.98,6.97-3.02c2.45-0.05,7.16,0.8,7.16,0.8l0.18,0.73l-6.26-0.85c0,0-0.57-0.11-1,0.03
	C69.68,13.19,65.27,16.04,65.29,15.71z"/>
<path d="M64.44,0.75c0,0-0.28,4.27-0.28,5.09s-1.38,4.45-1.38,4.45s1.36-9.74,0.16-9.54H64.44z"/>
<path d="M60.88,9.03c0,0-1.3-0.33-2.16,0.61c-1.77,1.77-1.47,0.74-1.23,0.5c0.23-0.25,1.32-1.09,1.84-1.25
	C60.41,8.89,60.88,9.03,60.88,9.03z"/>
<path class="st3" d="M8.24,39.73c0,0,0.21,0,0.37,0c0.9,0.02,2.99-0.04,3.96,0.97c0.73,0.77,0.87,2.12,0.77,4.5
	c-0.08,0.17-2.05-0.98-2.05-0.98l-1.24-1.37c0,0,0.42,0.62,0.45,1.02c0.02,0.37-1.86,2.79-1.86,2.79l2.38-1.71l2.28,1.65l0.44,3.6
	l0.06,0.77l0.45,1.5c0,0,0.28,1.08-0.27,1.36c-0.54,0.27-1.24,0.34-1.73-0.03c-0.69-0.52-1.86-1.23-1.86-1.23l-1.39-0.85l-0.75-1.5
	l-0.7-2.26c0,0-0.63-1.59-0.79-2.28c-0.15-0.65-0.26-1.64-0.01-2.95C7.25,41.73,8.24,39.73,8.24,39.73z"/>
<path d="M52.15,8.99c0.01-0.08-3.87-1.74-3.87-1.74L45.4,6.32c0,0-2.84-0.82-7.18-0.78c0,0-11.78,2.07-14.99,5.28
	c0.15,0.01-11.28,7.96-12.41,27.46C8.6,30.22,15.75,11.63,26.98,7.69c2.6-0.81,9.93-3.24,12.74-2.82c2.61-0.05,5.21,0.63,5.21,0.63
	l3.5,1.06C48.34,6.38,51.74,8,52.15,8.99z"/>
<path class="st4" d="M24.73,9c0.02,0.52-0.23,0.77-0.75,0.75C23.96,9.23,24.21,8.98,24.73,9z"/>
<path d="M53.69,39.7c0.26-0.18-5.47-8.4-5.73-8.21c-0.25-1.27-2.32-1.27-3.75,0.75c0.16,0.81-4.79,6.26-5.34,7.07
	c-0.06-0.04,4.79-7.6,4.84-7.56c0.12,0.07-0.06,0.08-0.06-0.06c0.01-0.42,0.65-0.95,0.8-1.14c0.08-0.1,0.12-0.19,0.15-0.27
	c0.09-0.2,1.65-1.27,1.65-1.27S55.18,37.23,53.69,39.7z"/>
<path d="M35.22,34.48l0,1.5v2.25c0,0-1,1.5-1,1.5c0.5-1.5,0.99-4.37,0.46-6c0-0.85-0.21-1.09-0.21-1.33c0-0.05-0.01-0.21-0.01-0.44
	c0-0.2,0.01-0.37,0.01-0.48C34.97,32.48,35.22,34.48,35.22,34.48z"/>
<path d="M58.45,14.24c-0.93-0.88-3.93-3.18-5.39-4.64c0.15-0.23,3.63,2.46,3.63,2.46c0.12-0.13,3.62,3.06,3.5,3.19
	C60.07,15.38,58.57,14.12,58.45,14.24z"/>
<path d="M30.93,33.98l2.7-2.03l0.84-0.47l0,0.8c0.07,0.08-8.71,8.05-8.78,7.97C25.61,40.15,30.93,33.98,30.93,33.98z"/>
<path d="M62.02,18.57c-1.18-0.29-3.7-4.45-3.7-4.45s1.43-0.14,1.58-0.24c1.57-0.01,1.47,1.74,1.16,2.97
	C61.68,16.49,62.65,18.22,62.02,18.57z"/>
<path d="M39.32,53.81c-0.52,0.02-0.77-0.23-0.75-0.75C39.24,52.88,39.49,53.13,39.32,53.81z"/>
<path class="st6" d="M49.73,33.62l0.32,0.3l1.42,2.06l-4.99,2.63c0,0-1.34,0.34-2.49,0.16c1.95-1.53,2.93-3.64,5.2-4.44
	C49.75,34.14,49.73,33.62,49.73,33.62z"/>
<path d="M39.53,62.97c-0.66,0-1.17,0.08-1.64-0.03c-0.37-0.08-0.61,0.18-0.52-0.2c0.05-0.21,0.16-0.31,0.31-0.34
	c0.48-0.07,1.38-0.1,1.84,0.01c0.37,0.09,1.78-0.05,1.86,0.18C41.54,63.03,39.78,62.71,39.53,62.97z"/>
<path d="M34.84,38.56c0,0-0.67,3.17-0.13,3.47c0.55,0.14,5.59-4.61,5.42-4.49c0.46,0.58-5.07,5.41-5.53,4.84
	c-0.66,0.01-0.56-0.77-0.56-0.77C33.66,41.59,34.5,38.55,34.84,38.56z"/>
<path class="st5" d="M63.69,25.49c1.44,0.35,0.46,1.51,0.75,2.25C63,27.38,63.98,26.22,63.69,25.49z"/>
<path class="st5" d="M64.44,27.73c1.12,0.06,0.64,0.93,0.75,1.5C64.07,29.17,64.56,28.3,64.44,27.73z"/>
<path d="M51.73,45.12c0.07,0.33-0.23,0.55-0.6,0.59c-0.51,0.06-0.93-0.05-0.94-0.75c0-0.46,0.22-0.68,0.59-0.73
	C51.31,44.17,51.73,44.33,51.73,45.12z"/>
<path d="M27.13,44.22c0.39,0.11,0.61,0.28,0.61,0.75c-0.01,0.69-0.43,0.8-0.94,0.75c-0.38-0.04-0.6-0.26-0.59-0.73
	C26.22,44.29,26.64,44.23,27.13,44.22z"/>
<path class="st5" d="M35.22,38.23c0-0.75,0-1.5,0-2.25C36.25,36.73,36.25,37.48,35.22,38.23z"/>
<path class="st1" d="M66.85,29.73c-0.49-2-1.06-4.09-1.06-4.09s-0.92-1.02-0.16-1.43C65.9,24.06,69,24.46,69,24.46
	s0.05,4.94-0.01,5.23s0.14,3.5,0.14,3.5l0.09,5.96c0,0-1.29-0.97-2.46-0.97c0.51-1.85,0.51-2.88,0.67-4.91
	C67.41,33.06,67.12,30.55,66.85,29.73z"/>
<path class="st1" d="M62.07,17.99c0.02,0.13-1-0.96-1-0.96l-0.85-0.84c0,0-0.75-1.07-0.95-1.27c0.05-0.03-0.46-0.88-0.51-0.85
	c0,0-0.68-1.76,0.06-2.27c0.73-0.73,3.08-0.56,3.71-0.32s2.26,3.58,2.26,4.03C64.79,15.96,63.32,18.72,62.07,17.99z"/>
<path class="st1" d="M57.83,12.38c0.03,0.14-1.42-0.7-1.42-0.7c-2.48-2.58-1.85-2.68-1.57-2.11c0,0,0.86-1.16-0.14-1.14
	c0-1.57,2.49,1.69,2.01,1.88C56.39,10.43,55.88,9.12,56.2,9C56.18,9.01,57.8,12.24,57.83,12.38z"/>
<path d="M63.09,15.93c0.05-0.14-4.23-1.61-4.29-1.46C57.65,13.31,62.05,14.89,63.09,15.93z"/>
<path d="M56.56,11.06c-0.36,0.32-4.84-5.27-4.48-5.59l1.56,2.04l1.24,1.27C54.88,8.78,55.86,9.69,56.56,11.06z"/>
<path class="st3" d="M69.48,40l-0.37-0.52c-0.75-0.75-3.96-0.83-3.96,0.97c0.25,1.03-0.87,2.12-0.77,4.5
	c0.08,0.17,2.05-0.98,2.05-0.98l1.24-1.37c0,0-0.42,0.62-0.45,1.02c-0.02,0.37,1.55,2.48,1.55,2.48l-2.07-1.4l-2.28,1.65L64,49.95
	l-0.06,0.77l0.13,1.5c0,0-0.56,1.08-0.01,1.36c0.54,0.27,0.94,0.34,1.43-0.03c0.69-0.52,1.86-1.23,1.86-1.23l1.39-0.85l0.75-1.5
	l0.7-2.26c0,0,0.63-1.59,0.79-2.28c0.15-0.65,0.26-1.64,0.01-2.95C70.48,41.48,69.48,40,69.48,40z"/>
<path class="st6" d="M31.53,35.05l-0.59,0.5l-1.2,1.06l4.73,2.23l0.22-0.87c0,0-0.73-1.38-3-2.18
	C31.13,35.58,31.53,35.05,31.53,35.05z"/>
<path class="st7" d="M30.79,75.94c0,0-1.84,0.8-3.76,1.55c-1.92,0.75-4.11,2.79-4.11,2.79l5.17-0.16L30.79,75.94z"/>
<path class="st7" d="M48.31,75.78l1.14,4.43l5.47,0c0,0-1.01-1.81-2.87-2.83C50.19,76.35,48.31,75.78,48.31,75.78z"/>
<polygon points="25.41,78.24 28.09,80.11 28.33,79.71 26.19,77.82 "/>
<polygon points="52.75,77.74 49.46,80.21 49.23,79.8 52,77.29 "/>
<path d="M48.03,75.78c1.43,0.01,5.69,2.5,6.89,4.43c0,0-1.44-2.4-2.62-2.91c-0.72-0.65-3.47-1.48-3.47-1.48L48.03,75.78z"/>
<path d="M23.03,80.22c0.79-0.98,2.16-2.29,2.16-2.29c0.04,0,0.79-0.58,1.31-0.73c1.77-0.46,2.53-0.8,4.29-1.26
	c-0.01-0.02-3.02,1.26-5.07,2.23C24.92,78.62,24.32,79.31,23.03,80.22z"/>
</svg>
